<svg width="32" height="32" viewBox="0 0 32 32" fill="none" xmlns="http://www.w3.org/2000/svg">
<circle cx="15.7459" cy="15.7459" r="15.7459" fill="white"/>
<path d="M25 15.4354C25 15.3846 25 15.3269 24.9979 15.2599C24.9958 15.0729 24.9915 14.8629 24.9873 14.639C24.9703 13.9949 24.9406 13.3532 24.894 12.7484C24.8304 11.9151 24.7371 11.2202 24.6098 10.6985C24.4756 10.1541 24.2124 9.65755 23.8466 9.25853C23.4808 8.85952 23.0252 8.57201 22.5253 8.42475C21.9252 8.24931 20.7504 8.14081 19.0964 8.07387C18.3097 8.04155 17.4679 8.02078 16.626 8.00923C16.3312 8.00462 16.0577 8.00231 15.8117 8H15.1883C14.9423 8.00231 14.6687 8.00462 14.374 8.00923C13.5321 8.02078 12.6903 8.04155 11.9036 8.07387C10.2496 8.14312 9.07266 8.25162 8.47466 8.42475C7.97464 8.57165 7.51887 8.85904 7.15303 9.25811C6.78718 9.65717 6.52411 10.1539 6.39018 10.6985C6.26083 11.2202 6.16964 11.9151 6.10603 12.7484C6.05937 13.3532 6.02969 13.9949 6.01272 14.639C6.00636 14.8629 6.00424 15.0729 6.00212 15.2599C6.00212 15.3269 6 15.3846 6 15.4354V15.5646C6 15.6154 6 15.6731 6.00212 15.7401C6.00424 15.9271 6.00848 16.1371 6.01272 16.361C6.02969 17.0051 6.05937 17.6468 6.10603 18.2516C6.16964 19.0849 6.26295 19.7798 6.39018 20.3015C6.66161 21.4072 7.45893 22.2798 8.47466 22.5753C9.07266 22.7507 10.2496 22.8592 11.9036 22.9261C12.6903 22.9584 13.5321 22.9792 14.374 22.9908C14.6687 22.9954 14.9423 22.9977 15.1883 23H15.8117C16.0577 22.9977 16.3312 22.9954 16.626 22.9908C17.4679 22.9792 18.3097 22.9584 19.0964 22.9261C20.7504 22.8569 21.9273 22.7484 22.5253 22.5753C23.5411 22.2798 24.3384 21.4095 24.6098 20.3015C24.7392 19.7798 24.8304 19.0849 24.894 18.2516C24.9406 17.6468 24.9703 17.0051 24.9873 16.361C24.9936 16.1371 24.9958 15.9271 24.9979 15.7401C24.9979 15.6731 25 15.6154 25 15.5646V15.4354ZM23.4732 15.5554C23.4732 15.6039 23.4732 15.657 23.4711 15.7193C23.469 15.8994 23.4647 16.0979 23.4605 16.3126C23.4456 16.9266 23.416 17.5406 23.3714 18.1108C23.3142 18.8541 23.2336 19.4635 23.1339 19.8721C23.0025 20.4054 22.6165 20.8278 22.1288 20.9686C21.6835 21.0979 20.5617 21.2018 19.0371 21.2641C18.2652 21.2964 17.4339 21.3172 16.6048 21.3287C16.3143 21.3333 16.045 21.3356 15.8032 21.3356H15.1968L14.3952 21.3287C13.5661 21.3172 12.7369 21.2964 11.9629 21.2641C10.4383 21.1994 9.3144 21.0979 8.87121 20.9686C8.38348 20.8255 7.99754 20.4054 7.86607 19.8721C7.76641 19.4635 7.68583 18.8541 7.62857 18.1108C7.58404 17.5406 7.55647 16.9266 7.53951 16.3126C7.53315 16.0979 7.53103 15.897 7.52891 15.7193C7.52891 15.657 7.52679 15.6016 7.52679 15.5554V15.4446C7.52679 15.3961 7.52679 15.343 7.52891 15.2807C7.53103 15.1006 7.53527 14.9021 7.53951 14.6874C7.55435 14.0734 7.58404 13.4594 7.62857 12.8892C7.68583 12.1459 7.76641 11.5365 7.86607 11.1279C7.99754 10.5946 8.38348 10.1722 8.87121 10.0314C9.31652 9.90212 10.4383 9.79825 11.9629 9.73592C12.7348 9.7036 13.5661 9.68283 14.3952 9.67128C14.6857 9.66667 14.955 9.66436 15.1968 9.66436H15.8032L16.6048 9.67128C17.4339 9.68283 18.2631 9.7036 19.0371 9.73592C20.5617 9.80055 21.6856 9.90212 22.1288 10.0314C22.6165 10.1745 23.0025 10.5946 23.1339 11.1279C23.2336 11.5365 23.3142 12.1459 23.3714 12.8892C23.416 13.4594 23.4435 14.0734 23.4605 14.6874C23.4669 14.9021 23.469 15.103 23.4711 15.2807C23.4711 15.343 23.4732 15.3984 23.4732 15.4446V15.5554ZM13.6127 18.5933L18.5324 15.4769L13.6127 12.4067V18.5933Z" fill="#FF7B31"/>
</svg>
